# xmcd CD database file
#
# Track frame offsets:
#	182
#	9815
#	23867
#	34272
#	55852
#	70970
#	81362
#	95802
#	114190
#	131182
#	157172
#	172072
#	204015
#	219800
#	236087
#	259805
#	277400
#	295800
#	323077
#
# Disc length: 4571 seconds
#
# Revision: 0
# Processed by: cddbd v1.5.2PL0 Copyright (c) Steve Scherf et al.
# Submitted via: CDex 1.70beta2
#
DISCID=1711d913
DTITLE=Various Artist - Born With The Blues
DYEAR=1996
DGENRE=Blues
TTITLE0=Everyday I Have The Blues
TTITLE1=Outskirts Of Town
TTITLE2=Step Back Baby
TTITLE3=Born With The Blues
TTITLE4=Whose Ol' Funky Drawers is These 
TTITLE5=Highway 49
TTITLE6=Okie Dokie Stomp
TTITLE7=Annie Lee
TTITLE8=Deep Freeze
TTITLE9=Five Long Years
TTITLE10=Have a Good Time
TTITLE11=Blues Come Home
TTITLE12=Don't Let My Baby Ride
TTITLE13=Juke
TTITLE14=In My Younger Days
TTITLE15=Daddy Rollin'Stone
TTITLE16=Off The Hook
TTITLE17=Black Jack
TTITLE18=Messing With The Kid
EXTD=YEAR: 1996
EXTT0=
EXTT1=
EXTT2=
EXTT3=
EXTT4=
EXTT5=
EXTT6=
EXTT7=
EXTT8=
EXTT9=
EXTT10=
EXTT11=
EXTT12=
EXTT13=
EXTT14=
EXTT15=
EXTT16=
EXTT17=
EXTT18=
PLAYORDER=
